<?xml version="1.0" encoding="utf-8"?>
<!-- Svg Vector Icons : http://www.onlinewebfonts.com/icon -->
<!DOCTYPE svg PUBLIC "-//W3C//DTD SVG 1.1//EN" "http://www.w3.org/Graphics/SVG/1.1/DTD/svg11.dtd">
<svg version="1.1" xmlns="http://www.w3.org/2000/svg" xmlns:xlink="http://www.w3.org/1999/xlink" x="0px" y="0px" viewBox="0 0 1000 1000" enable-background="new 0 0 1000 1000" xml:space="preserve">
<metadata> Svg Vector Icons : http://www.onlinewebfonts.com/icon </metadata>
<g><g transform="translate(0.000000,511.000000) scale(0.100000,-0.100000)"><path d="M6849.2,3657.5c-417.5-86.3-648.8-562.6-456.7-939c90.2-178.4,235.2-296,425.4-345c149-39.2,211.7-37.2,364.6,9.8c245,76.4,431.3,305.8,456.7,566.5C7684.3,3373.3,7270.7,3745.7,6849.2,3657.5z"/><path d="M5510.4,2710.7c-145.1-60.8-127.4-49-960.5-650.8c-403.8-290.1-784.1-578.3-844.9-639.1c-235.2-233.3-274.4-456.7-129.4-746.9c54.9-111.7,107.8-180.3,221.5-288.2c162.7-156.8,268.6-229.4,768.4-531.2c225.4-135.2,335.2-211.7,329.3-229.4c-5.9-13.7-194.1-296-417.5-627.3c-223.5-329.3-417.5-623.4-431.3-650.8c-54.9-117.6-5.9-268.6,111.7-350.9c47-31.4,92.1-43.1,172.5-43.1c198,0,201.9,3.9,809.6,856.7c303.8,423.4,562.6,797.8,580.3,831.2c41.2,84.3,25.5,239.1-31.4,299.9c-25.5,25.5-268.6,196-543,378.3c-272.5,180.3-494,335.2-492,343c3.9,15.7,1203.6,856.6,1240.9,872.3c13.7,3.9,86.3-166.6,184.3-429.3c182.3-497.9,225.4-582.2,325.4-644.9c64.7-39.2,86.3-41.2,266.6-29.4l196,11.8l-37.3-45.1C6810,374,6420-72.9,5961.2-592.4c-458.7-521.4-844.9-970.3-856.7-999.7c-60.8-131.3,66.7-280.3,213.7-249c43.1,9.8,280.3,268.6,1029.2,1119.3c535.1,609.6,978.2,1099.7,986,1091.9c15.7-19.6,98-305.8,98-343c0-13.7-72.5-62.7-162.7-109.8c-446.9-229.4-756.7-629.2-899.8-1156.6c-58.8-219.6-58.8-595.9,0-835.1c84.3-337.2,256.8-637.1,505.7-876.2c168.6-158.8,280.3-235.2,486.2-333.3c472.4-221.5,1070.3-215.6,1523.1,11.7c309.7,154.9,539.1,352.9,715.5,619.5c548.9,823.3,325.4,1932.8-503.8,2485.6C8778.2,46.7,8441,138.8,8033.3,125.1l-229.4-7.8l-41.2,137.2c-21.6,76.5-47.1,164.7-56.9,196c-23.5,68.6-15.7,84.3,56.9,100c31.4,5.9,72.5,29.4,90.2,49c45.1,49,58.8,176.4,29.4,264.6c-19.6,58.8-41.2,80.4-113.7,113.7c-86.3,37.3-115.7,39.2-505.8,25.5l-415.6-13.7l-19.6,54.9c-311.7,874.3-403.8,1099.7-519.5,1270.3c-252.9,374.4-337.2,441.1-564.6,441.1C5657.4,2755.8,5584.9,2740.1,5510.4,2710.7z M8409.6-233.6c697.9-147,1195.8-793.9,1152.6-1499.6c-13.7-231.3-52.9-378.3-150.9-578.3c-182.3-366.6-535.1-652.8-935-756.7c-194.1-51-509.7-54.9-695.9-9.8c-576.3,137.2-1005.6,601.8-1105.6,1199.7c-86.3,509.7,131.3,1058.5,543,1368.3c115.7,88.2,309.7,198,319.5,184.2c3.9-3.9,94.1-321.5,203.9-709.6c143.1-505.8,209.8-715.5,241.1-748.8c111.7-119.6,311.7-43.1,311.7,117.6c0,27.4-88.2,360.7-196,737.1c-107.8,378.3-196,695.9-196,707.7C7901.9-194.4,8256.7-200.3,8409.6-233.6z"/><path d="M7194.3,1483.6c-41.2-43.1-56.9-76.5-56.9-129.4c0-52.9,15.7-86.3,56.9-129.4l56.8-56.9h266.6c247,0,268.5,3.9,315.6,45.1c35.3,29.4,54.9,70.6,62.7,125.5c9.8,72.5,3.9,88.2-49,143.1l-58.8,58.8h-268.6h-268.6L7194.3,1483.6z"/><path d="M3009,881.8c-168.6-82.3-166.6-348.9,3.9-429.3c41.2-19.6,121.5-29.4,231.3-29.4h168.6l-256.8-303.8l-256.8-303.8l-52.9,37.3c-98,70.6-296,158.8-466.5,211.7c-154.9,47-203.9,52.9-476.3,52.9c-254.8,2-329.3-5.9-460.7-41.2C513.6-178.8-54.9-1090.3,137.2-2017.5c127.4-623.4,574.4-1131.1,1172.3-1334.9c668.4-227.4,1384-52.9,1870.1,454.8c233.3,245,378.3,513.6,452.8,837c37.2,164.7,49,190.1,84.3,190.1c29.4,0,62.7,47.1,143.1,196l101.9,196h-147c-139.2,0-147,2-147,45.1c0,101.9-86.3,390.1-166.6,552.8c-47.1,98-135.3,243.1-196,319.5c-64.7,84.3-103.9,152.9-94.1,166.6c7.8,13.7,107.8,133.3,221.5,268.6c113.7,135.3,217.6,260.7,233.3,278.4c23.5,31.4,11.8,51-105.8,174.5c-127.4,135.3-284.2,405.8-284.2,490.1c0,78.4-21.6,96-115.7,96C3111,913.1,3042.4,899.4,3009,881.8z M2305.3-263C2470-316,2668-412,2668-441.4c0-9.8-205.8-264.6-456.7-562.6c-252.9-298-468.5-562.6-480.3-586.1c-37.3-68.6-27.5-154.9,23.5-215.6l47.1-54.9l766.5-5.9c421.5-2,766.5-11.7,766.5-19.6c0-60.8-96.1-335.2-162.7-464.6c-113.7-219.6-372.5-478.3-594-592c-282.3-147-580.2-201.9-868.4-162.7c-480.3,64.7-874.3,339.1-1105.6,764.5c-100,184.3-150.9,370.5-164.7,597.9C398-1029.5,880.2-392.4,1582-235.6C1774.1-192.5,2123-206.2,2305.3-263z M3081.6-815.8c45.1-64.7,105.9-174.5,139.2-245c54.9-123.5,127.4-390.1,109.8-409.7c-5.9-3.9-239.2-5.9-519.5-3.9l-509.7,5.9l333.2,396c182.3,219.6,341.1,392.1,348.9,386.2C2993.4-692.3,3038.4-749.2,3081.6-815.8z"/></g></g>
</svg>